<svg xmlns="http://www.w3.org/2000/svg" xmlns:xlink="http://www.w3.org/1999/xlink" viewBox="0 0 145.82 100.71"><defs><style>.cls-1{fill:none;}.cls-2{fill:#fdb929;}.cls-3{fill:#ffd27e;}.cls-4{fill:#f68529;}.cls-5{fill:#b04e2f;}.cls-6{fill:#5e3f2c;}.cls-7{fill:#fff;}.cls-8{clip-path:url(#clip-path);}.cls-9{fill:#f47c29;}</style><clipPath id="clip-path" transform="translate(-2.59 -2.64)"><rect class="cls-1" width="151" height="105.99"/></clipPath></defs><title>cool-cubera-logo</title><g id="Layer_2" data-name="Layer 2"><g id="Layer_1-2" data-name="Layer 1"><path class="cls-2" d="M128.52,66.69c0,23.54-23.81,36.66-53.19,36.66S22.15,90.23,22.15,66.69,46,12,75.34,12s53.19,31.19,53.19,54.73Z" transform="translate(-2.59 -2.64)"/><path class="cls-3" d="M75.34,57.66c-19.52,0-35.58,19.77-37.53,36.24,9.62,6.19,22.88,9.45,37.53,9.45s27.91-3.26,37.53-9.45c-1.95-16.47-18-36.24-37.53-36.24Z" transform="translate(-2.59 -2.64)"/><path class="cls-4" d="M102.72,45c0-3.39-12-5.28-26.8-5.28S49.11,41.64,49.11,45s12,7.89,26.8,7.89,26.8-4.49,26.8-7.89Z" transform="translate(-2.59 -2.64)"/><path class="cls-5" d="M84.59,45.16c0-1.1-3.88-1.71-8.67-1.71s-8.67.61-8.67,1.71,3.88,2.55,8.67,2.55,8.67-1.45,8.67-2.55Z" transform="translate(-2.59 -2.64)"/><path class="cls-6" d="M53.65,25.88a4.05,4.05,0,1,1-4.05-4.05,4.05,4.05,0,0,1,4.05,4.05Z" transform="translate(-2.59 -2.64)"/><path class="cls-7" d="M49.31,24.62A1.26,1.26,0,1,1,48,23.36a1.26,1.26,0,0,1,1.26,1.26Z" transform="translate(-2.59 -2.64)"/><path class="cls-7" d="M47.89,27.28a.55.55,0,1,1-.55-.55.55.55,0,0,1,.55.55Z" transform="translate(-2.59 -2.64)"/><path class="cls-6" d="M105.13,25.88a4.05,4.05,0,1,1-4.05-4.05,4.05,4.05,0,0,1,4.05,4.05Z" transform="translate(-2.59 -2.64)"/><path class="cls-7" d="M100.79,24.62a1.26,1.26,0,1,1-1.26-1.26,1.26,1.26,0,0,1,1.26,1.26Z" transform="translate(-2.59 -2.64)"/><path class="cls-7" d="M99.37,27.28a.55.55,0,1,1-.55-.55.55.55,0,0,1,.55.55Z" transform="translate(-2.59 -2.64)"/><path class="cls-3" d="M111.7,31.54l12.1-3.71-7.16,9.81s-5.47-1.05-4.95-6.1Z" transform="translate(-2.59 -2.64)"/><path class="cls-3" d="M88.44,16.43l7.2-9.55L96.15,19s-5,1.7-7.71-2.58Z" transform="translate(-2.59 -2.64)"/><path class="cls-3" d="M63.31,16.43l-7.2-9.55L55.6,19s5,1.7,7.71-2.58Z" transform="translate(-2.59 -2.64)"/><path class="cls-3" d="M80.56,13.76,76.14,2.64l-3.7,11.57s4.35,3,8.12-.45Z" transform="translate(-2.59 -2.64)"/><path class="cls-3" d="M80.56,28l4.66-6.18.33,7.85s-3.22,1.1-5-1.67Z" transform="translate(-2.59 -2.64)"/><path class="cls-3" d="M69.74,28l-4.66-6.18-.33,7.85s3.22,1.1,5-1.67Z" transform="translate(-2.59 -2.64)"/><path class="cls-3" d="M119.81,42.88l9.31-1.05L122.58,48s-3.83-1.51-2.77-5.11Z" transform="translate(-2.59 -2.64)"/><path class="cls-3" d="M127.36,67.1l9.47,8.4-12.1-1s-1.95-5.22,2.64-7.4Z" transform="translate(-2.59 -2.64)"/><path class="cls-3" d="M112.27,65.13l5.47,8.09-9.56-1.38s-.84-5.5,4.09-6.71Z" transform="translate(-2.59 -2.64)"/><path class="cls-3" d="M106.76,48l9.9-1.68-5.37,8.09S105.91,53,106.76,48Z" transform="translate(-2.59 -2.64)"/><path class="cls-3" d="M120.51,84l4.42,11.86-10.22-6.56s.73-5.52,5.8-5.3Z" transform="translate(-2.59 -2.64)"/><path class="cls-3" d="M24.86,67.1l-9.47,8.4,12.1-1s1.95-5.22-2.64-7.4Z" transform="translate(-2.59 -2.64)"/><path class="cls-3" d="M39.94,65.13l-5.47,8.09L44,71.84s.84-5.5-4.09-6.71Z" transform="translate(-2.59 -2.64)"/><path class="cls-3" d="M45.45,48l-9.9-1.68,5.37,8.09S46.3,53,45.45,48Z" transform="translate(-2.59 -2.64)"/><path class="cls-3" d="M31.7,84,27.29,95.91,37.5,89.34s-.73-5.52-5.8-5.3Z" transform="translate(-2.59 -2.64)"/><path class="cls-3" d="M38.51,31.54l-12.1-3.71,7.16,9.81s5.47-1.05,4.95-6.1Z" transform="translate(-2.59 -2.64)"/><g class="cls-8"><path class="cls-3" d="M32,43l-8.64-1,6.07,5.72S33,46.39,32,43Z" transform="translate(-2.59 -2.64)"/><path class="cls-9" d="M123.28,50.22s19.8-15.65,24-6.41-3.17,27.8-16.9,20.15c-14.17-7.9-11.3-10.71-7.06-13.74Z" transform="translate(-2.59 -2.64)"/><path class="cls-5" d="M142.6,57.92l-20.26-3.79L142.57,52a.32.32,0,0,0-.07-.63L122,53.52l19.15-8.86a.32.32,0,1,0-.27-.57L120,53.76h0l0,0-.06,0,0,0,0,.06h0a.29.29,0,0,0,0,0,.3.3,0,0,0,0,.06.3.3,0,0,0,0,.06s0,0,0,0h0a.31.31,0,0,0,.1.15l0,0,0,0,16.16,8.55a.32.32,0,0,0,.15,0,.32.32,0,0,0,.15-.6l-14.32-7.57,20.32,3.81a.32.32,0,0,0,.37-.25.32.32,0,0,0-.25-.37Z" transform="translate(-2.59 -2.64)"/><path class="cls-9" d="M27.72,50.22s-19.8-15.65-24-6.41S6.93,71.61,20.66,64c14.17-7.9,11.3-10.71,7.06-13.74Z" transform="translate(-2.59 -2.64)"/></g><path class="cls-5" d="M8.4,57.92l20.26-3.79L8.43,52a.32.32,0,0,1,.07-.63L29,53.52,9.8,44.67a.32.32,0,0,1,.27-.57L31,53.76h0l0,0,.06,0,0,0,0,.06h0a11.09,11.09,0,0,1,0,.09.25.25,0,0,1,0,.06.3.3,0,0,1,0,0h0a.31.31,0,0,1-.1.15l0,0,0,0L14.82,62.87a.32.32,0,0,1-.15,0,.32.32,0,0,1-.15-.6l14.32-7.57L8.52,58.54a.32.32,0,0,1-.37-.25.32.32,0,0,1,.25-.37Z" transform="translate(-2.59 -2.64)"/></g></g></svg>