<svg xmlns="http://www.w3.org/2000/svg" viewBox="0 0 1440.39 811.06" class="wavy-bg-lg">
				<defs>
					<linearGradient id="litgrad" x1="0%" y1="0%" x2="100%" y2="0%">
						<stop offset="0%" style="stop-color:hsl(147, 100%, 82%);stop-opacity:1" />
						<stop offset="60%" style="stop-color:hsl(203, 100%, 71%);stop-opacity:1" />
						<stop offset="100%" style="stop-color:rgb(91, 117, 233);stop-opacity:.9" />
					</linearGradient>
				</defs>
				<g id="Layer_2-2" data-name="Layer 2">
					<path fill="hsl(147, 100%, 82%)" d="M0,599.1l79.85-7.26c79.83-7.65,239.54-21.55,400.27,6.24,23.62,4.17,47.27,9.25,70.93,14.92l-5.32-1.51c-21.78-5.7-43.56-10.88-65.34-15.27-160-31.7-320-21.7-400-16l-80,5.3"/>
					<path fill="hsl(147, 100%, 82%)" d="M960.39,724.22C825.33,705.9,690.26,650.31,555.2,614l-4.15-1c135.79,38.82,271.2,97.7,407.32,118.7,159.95,24.29,320.89-4.72,401.36-19.23l80.66-14.58v-16l-80,15.58C1280.39,713.52,1120.39,745.52,960.39,724.22Z"/>
					<path fill="url(#litgrad)" d="M.39.08V573.27l78.78-2c80.27-4.2,240.8-11.22,400.56,23.46,22,4.87,44,10.52,66,16.72,3.16.83,6.31,1.66,9.47,2.51,135.95,33,272.38,85.31,407.9,100.33,160.47,17.39,319.64-18.51,399.23-36.45l78.06-17.43L1439.77,0Z"/>
					<path fill="hsl(203, 100%, 71%)" d="M.39,585.52l80-5.3c80-5.7,240-15.7,400,16,21.72,4.38,45.23,10,67,15.71,134.6,36.34,278.52,94,413,112.29,160,21.3,320-10.7,400-26.7l80-15.58V660.1l-78.06,17.78c-79.59,17.94-238.76,53.84-399.23,36.45-135.36-15-281.07-69.71-416.89-102.72-21.63-6.08-44.91-12.07-66.48-16.84C320,560.09,155.58,566.51,75.3,570.71L.39,573.27"/>
				</g>
			</svg>