<svg xmlns="http://www.w3.org/2000/svg" xmlns:xlink="http://www.w3.org/1999/xlink" viewBox="0 0 492.85 63.33"><defs><style>.cls-1{font-size:50px;fill:none;stroke:#000;stroke-miterlimit:10;stroke-width:0.5px;font-family:SukhumvitSet-Text, Sukhumvit Set;}.cls-2{letter-spacing:-0.01em;}.cls-3{letter-spacing:0.01em;}.cls-4{letter-spacing:-0.01em;}.cls-5{fill:url(#linear-gradient);}</style><linearGradient id="linear-gradient" x1="4.35" y1="25.37" x2="467.39" y2="25.37" gradientUnits="userSpaceOnUse"><stop offset="0" stop-color="#2d00a8"/><stop offset="1" stop-color="#ff009a"/></linearGradient></defs><title>we-different</title><g id="Layer_2" data-name="Layer 2"><g id="Layer_1-2" data-name="Layer 1"><text class="cls-1" transform="translate(0.25 42.22)">How a<tspan class="cls-2" x="131.65" y="0">r</tspan><tspan x="149.6" y="0">e we di</tspan><tspan class="cls-3" x="298.84" y="0">f</tspan><tspan class="cls-2" x="316.04" y="0">f</tspan><tspan x="332.24" y="0">e</tspan><tspan class="cls-4" x="357.29" y="0">r</tspan><tspan x="375.24" y="0">ent?</tspan></text><path class="cls-5" d="M25.2,26.62h-17v15.6H4.35V8.52h3.8V23h17V8.52H29v33.7H25.2Z"/><path class="cls-5" d="M35.3,30.12A17.24,17.24,0,0,1,36,25.2a11.4,11.4,0,0,1,2-4,9.31,9.31,0,0,1,3.5-2.65,12.24,12.24,0,0,1,5-1,12.07,12.07,0,0,1,5,1A9.58,9.58,0,0,1,55,21.22a11.19,11.19,0,0,1,2.08,4,17.28,17.28,0,0,1,.67,4.92,17.53,17.53,0,0,1-.67,5,11.15,11.15,0,0,1-2.08,4,9.57,9.57,0,0,1-3.5,2.65,12.07,12.07,0,0,1-5,1,12.24,12.24,0,0,1-5-1A9.3,9.3,0,0,1,38,39.07a11.36,11.36,0,0,1-2-4A17.49,17.49,0,0,1,35.3,30.12Zm3.65,0a15.54,15.54,0,0,0,.45,3.83,8.82,8.82,0,0,0,1.38,3,6.49,6.49,0,0,0,2.35,2A8.45,8.45,0,0,0,50,39a6.5,6.5,0,0,0,2.35-2,8.82,8.82,0,0,0,1.38-3,15.49,15.49,0,0,0,.45-3.83,14.9,14.9,0,0,0-.45-3.77,8.85,8.85,0,0,0-1.37-3,6.5,6.5,0,0,0-2.35-2,8.45,8.45,0,0,0-6.85,0,6.5,6.5,0,0,0-2.35,2,8.85,8.85,0,0,0-1.37,3A14.94,14.94,0,0,0,38.95,30.12Z"/><path class="cls-5" d="M83.35,32.62q.4,1.35.75,2.9t.6,3.25h.1q.1-1.75.3-3.3a27.78,27.78,0,0,1,.55-3l3.3-14.4h3.6L86.7,42.22H83.15l-5-15.75q-.4-1.3-.67-2.55T77,21.27h-.15q-.25,1.4-.52,2.65t-.67,2.55l-5,15.75H67.15L61.3,18.07h3.6l3.3,14.4a28.51,28.51,0,0,1,.55,3q.2,1.55.3,3.3h.1q.25-1.7.6-3.25t.75-2.9L75,18.07H78.8Z"/><path class="cls-5" d="M124.65,26.32q0-3-1.55-4.37a6.25,6.25,0,0,0-4.2-1.33,15.28,15.28,0,0,0-4.12.52,20.63,20.63,0,0,0-3.43,1.28l-.85-2.65a16.57,16.57,0,0,1,3.58-1.47,16.91,16.91,0,0,1,4.92-.68q4.7,0,7,2.35a8.87,8.87,0,0,1,2.25,6.4V42.22h-2.8L124.65,38a12.22,12.22,0,0,1-1.28,1.8,8,8,0,0,1-4,2.53,11.28,11.28,0,0,1-3.1.38,8.68,8.68,0,0,1-2.9-.48A7.14,7.14,0,0,1,111,40.82a6.14,6.14,0,0,1-1.6-2.25,7.84,7.84,0,0,1-.58-3.1,7,7,0,0,1,2.8-6.08q2.8-2,7.8-2h5.2Zm0,3.85H119.4a8.31,8.31,0,0,0-5.2,1.38,4.7,4.7,0,0,0-1.75,3.92,4,4,0,0,0,1.27,3.2,4.69,4.69,0,0,0,3.18,1.1,7.56,7.56,0,0,0,3.17-.65,7.83,7.83,0,0,0,4-4.12,6.91,6.91,0,0,0,.55-2.67Z"/><path class="cls-5" d="M139.4,22.37a15,15,0,0,1,1.17-1.72,9.47,9.47,0,0,1,1.53-1.54A7.75,7.75,0,0,1,144,18a6,6,0,0,1,2.33-.43,5.63,5.63,0,0,1,2.3.37,9.64,9.64,0,0,1,1,.48l-1.05,3.65a4.15,4.15,0,0,0-2.8-.9A6.21,6.21,0,0,0,142,22.32a8.17,8.17,0,0,0-2.62,3.25V42.22h-3.7V18.07h3Z"/><path class="cls-5" d="M155.7,31.82a8.83,8.83,0,0,0,2.38,5.8,8.14,8.14,0,0,0,6,2.05,16.58,16.58,0,0,0,3.35-.35,11.7,11.7,0,0,0,3-1.05l.9,2.75a14.31,14.31,0,0,1-3.42,1.23,19,19,0,0,1-4.17.43,13.34,13.34,0,0,1-5.12-.9,9.56,9.56,0,0,1-3.6-2.52,10.74,10.74,0,0,1-2.15-3.95,17.31,17.31,0,0,1-.73-5.18,18.12,18.12,0,0,1,.65-4.95,11.25,11.25,0,0,1,2-4,9.06,9.06,0,0,1,3.4-2.62,11.75,11.75,0,0,1,4.92-1q4.7,0,7.1,2.68a10.57,10.57,0,0,1,2.4,7.32,15.84,15.84,0,0,1-.15,2.25,15.52,15.52,0,0,1-.4,2Zm7.4-11.35a7.44,7.44,0,0,0-3.25.65,6.26,6.26,0,0,0-2.25,1.8,7.89,7.89,0,0,0-1.35,2.72,15.44,15.44,0,0,0-.55,3.43h13.4a2.55,2.55,0,0,0,0-.7v-.75a8.66,8.66,0,0,0-1.4-5.3Q166.35,20.48,163.1,20.47Z"/><path class="cls-5" d="M211.15,32.62q.4,1.35.75,2.9t.6,3.25h.1q.1-1.75.3-3.3a27.78,27.78,0,0,1,.55-3l3.3-14.4h3.6L214.5,42.22h-3.55l-5-15.75q-.4-1.3-.67-2.55t-.53-2.65h-.15q-.25,1.4-.52,2.65t-.67,2.55l-5,15.75h-3.55L189.1,18.07h3.6l3.3,14.4a28.51,28.51,0,0,1,.55,3q.2,1.55.3,3.3h.1q.25-1.7.6-3.25t.75-2.9l4.55-14.55h3.75Z"/><path class="cls-5" d="M227.5,31.82a8.83,8.83,0,0,0,2.38,5.8,8.14,8.14,0,0,0,6,2.05,16.58,16.58,0,0,0,3.35-.35,11.7,11.7,0,0,0,3-1.05l.9,2.75a14.31,14.31,0,0,1-3.42,1.23,19,19,0,0,1-4.17.43,13.34,13.34,0,0,1-5.12-.9,9.56,9.56,0,0,1-3.6-2.52,10.74,10.74,0,0,1-2.15-3.95,17.31,17.31,0,0,1-.73-5.18,18.12,18.12,0,0,1,.65-4.95,11.25,11.25,0,0,1,2-4,9.06,9.06,0,0,1,3.4-2.62,11.75,11.75,0,0,1,4.92-1q4.7,0,7.1,2.68a10.57,10.57,0,0,1,2.4,7.32,15.84,15.84,0,0,1-.15,2.25,15.52,15.52,0,0,1-.4,2Zm7.4-11.35a7.44,7.44,0,0,0-3.25.65,6.26,6.26,0,0,0-2.25,1.8A7.89,7.89,0,0,0,228,25.65a15.44,15.44,0,0,0-.55,3.43h13.4a2.55,2.55,0,0,0,0-.7v-.75a8.66,8.66,0,0,0-1.4-5.3Q238.15,20.48,234.9,20.47Z"/><path class="cls-5" d="M283.5,42.22h-3L279.79,38a8.84,8.84,0,0,1-3.08,3.33,8.44,8.44,0,0,1-4.78,1.38,10.1,10.1,0,0,1-4-.8,8.51,8.51,0,0,1-3.17-2.37,11.43,11.43,0,0,1-2.08-3.9,17.7,17.7,0,0,1-.75-5.42,16.85,16.85,0,0,1,.7-5,12,12,0,0,1,2-4,9.51,9.51,0,0,1,3.28-2.65,9.64,9.64,0,0,1,4.33-1,8.68,8.68,0,0,1,2.6.38A8.52,8.52,0,0,1,277,19a9.13,9.13,0,0,1,2.8,2.88V8.52h3.7Zm-3.7-17a10.1,10.1,0,0,0-3.1-3.12A7.14,7.14,0,0,0,272.84,21a6.88,6.88,0,0,0-5.25,2.25q-2.1,2.25-2.1,6.9a13.93,13.93,0,0,0,.57,4.3,8,8,0,0,0,1.55,2.85,5.85,5.85,0,0,0,2.22,1.6,6.93,6.93,0,0,0,2.6.5,6.43,6.43,0,0,0,2.88-.65,7.19,7.19,0,0,0,2.33-1.83,8.91,8.91,0,0,0,1.58-2.75,9.92,9.92,0,0,0,.58-3.42Z"/><path class="cls-5" d="M290.69,10.57a2.66,2.66,0,0,1,.65-1.8,2.81,2.81,0,0,1,3.83,0,2.72,2.72,0,0,1,.63,1.8,2.63,2.63,0,0,1-.62,1.77,2.88,2.88,0,0,1-3.83,0A2.56,2.56,0,0,1,290.69,10.57Zm4.4,31.65h-3.7V18.07h3.7Z"/><path class="cls-5" d="M311.64,11.07a5.16,5.16,0,0,0-2.12.38,2.8,2.8,0,0,0-1.27,1.13,5.08,5.08,0,0,0-.62,1.8,14.66,14.66,0,0,0-.18,2.4v1.3h7.1v3h-7.1V42.22h-3.6V21.07H300v-3h3.85V16.72a10.53,10.53,0,0,1,1.7-6.3q1.7-2.35,5.85-2.35a9.14,9.14,0,0,1,2.65.35,11.24,11.24,0,0,1,2.15.9l-.85,2.7A7.65,7.65,0,0,0,311.64,11.07Z"/><path class="cls-5" d="M328.84,11.07a5.16,5.16,0,0,0-2.12.38,2.8,2.8,0,0,0-1.27,1.13,5.08,5.08,0,0,0-.62,1.8,14.66,14.66,0,0,0-.18,2.4v1.3h7.1v3h-7.1V42.22H321V21.07h-3.85v-3H321V16.72a10.53,10.53,0,0,1,1.7-6.3q1.7-2.35,5.85-2.35a9.14,9.14,0,0,1,2.65.35,11.24,11.24,0,0,1,2.15.9l-.85,2.7A7.65,7.65,0,0,0,328.84,11.07Z"/><path class="cls-5" d="M338.34,31.82a8.83,8.83,0,0,0,2.38,5.8,8.14,8.14,0,0,0,6,2.05,16.58,16.58,0,0,0,3.35-.35,11.7,11.7,0,0,0,3-1.05L354,41a14.31,14.31,0,0,1-3.42,1.23,19,19,0,0,1-4.17.43,13.34,13.34,0,0,1-5.12-.9,9.56,9.56,0,0,1-3.6-2.52,10.74,10.74,0,0,1-2.15-3.95,17.31,17.31,0,0,1-.73-5.18,18.12,18.12,0,0,1,.65-4.95,11.25,11.25,0,0,1,2-4,9.06,9.06,0,0,1,3.4-2.62,11.75,11.75,0,0,1,4.92-1q4.7,0,7.1,2.68a10.57,10.57,0,0,1,2.4,7.32,15.84,15.84,0,0,1-.15,2.25,15.52,15.52,0,0,1-.4,2Zm7.4-11.35a7.44,7.44,0,0,0-3.25.65,6.26,6.26,0,0,0-2.25,1.8,7.89,7.89,0,0,0-1.35,2.72,15.44,15.44,0,0,0-.55,3.43h13.4a2.55,2.55,0,0,0,0-.7v-.75a8.66,8.66,0,0,0-1.4-5.3Q349,20.48,345.74,20.47Z"/><path class="cls-5" d="M365,22.37a15,15,0,0,1,1.17-1.72,9.47,9.47,0,0,1,1.53-1.54A7.75,7.75,0,0,1,369.62,18a6,6,0,0,1,2.33-.43,5.63,5.63,0,0,1,2.3.37,9.64,9.64,0,0,1,1,.48l-1.05,3.65a4.15,4.15,0,0,0-2.8-.9,6.21,6.21,0,0,0-3.67,1.15A8.17,8.17,0,0,0,365,25.57V42.22h-3.7V18.07h3Z"/><path class="cls-5" d="M381.34,31.82a8.83,8.83,0,0,0,2.38,5.8,8.14,8.14,0,0,0,6,2.05,16.58,16.58,0,0,0,3.35-.35,11.7,11.7,0,0,0,3-1.05L397,41a14.31,14.31,0,0,1-3.42,1.23,19,19,0,0,1-4.17.43,13.34,13.34,0,0,1-5.12-.9,9.56,9.56,0,0,1-3.6-2.52,10.74,10.74,0,0,1-2.15-3.95,17.31,17.31,0,0,1-.73-5.18,18.12,18.12,0,0,1,.65-4.95,11.25,11.25,0,0,1,2-4,9.06,9.06,0,0,1,3.4-2.62,11.75,11.75,0,0,1,4.92-1q4.7,0,7.1,2.68a10.57,10.57,0,0,1,2.4,7.32,15.84,15.84,0,0,1-.15,2.25,15.52,15.52,0,0,1-.4,2Zm7.4-11.35a7.44,7.44,0,0,0-3.25.65,6.26,6.26,0,0,0-2.25,1.8,7.89,7.89,0,0,0-1.35,2.72,15.44,15.44,0,0,0-.55,3.43h13.4a2.55,2.55,0,0,0,0-.7v-.75a8.66,8.66,0,0,0-1.4-5.3Q392,20.48,388.74,20.47Z"/><path class="cls-5" d="M408,42.22h-3.7V18.07h3L408,22a13.57,13.57,0,0,1,1.38-1.48,10.06,10.06,0,0,1,1.92-1.4,12.84,12.84,0,0,1,2.42-1,9.37,9.37,0,0,1,2.88-.43,7.57,7.57,0,0,1,6,2.5,10.24,10.24,0,0,1,2.17,7V42.22h-3.65V27.07a6.82,6.82,0,0,0-1.37-4.5A4.65,4.65,0,0,0,416,20.92a8.66,8.66,0,0,0-4.62,1.27A11.26,11.26,0,0,0,408,25.32Z"/><path class="cls-5" d="M436.89,35.62a6.09,6.09,0,0,0,.6,3,2.66,2.66,0,0,0,2.5,1,7.19,7.19,0,0,0,2.13-.3,9.74,9.74,0,0,0,1.72-.7l.85,2.65a8.25,8.25,0,0,1-2.2,1,11.13,11.13,0,0,1-3,.35A6,6,0,0,1,434.79,41q-1.5-1.65-1.5-5.35V21.07h-3.85v-3h3.85l1-6.9h2.65v6.9h7.45v3h-7.45Z"/><path class="cls-5" d="M457.29,11.42a15.76,15.76,0,0,0-4.22.57,20.47,20.47,0,0,0-3.67,1.38l-1-3.15a23.82,23.82,0,0,1,3.9-1.48,17.52,17.52,0,0,1,5-.67q5.15,0,7.63,2.23a7.7,7.7,0,0,1,2.48,6,8.48,8.48,0,0,1-.65,3.4,12.57,12.57,0,0,1-1.62,2.75A20.14,20.14,0,0,1,463,24.8q-1.15,1.08-2.12,2.15a13.39,13.39,0,0,0-1.62,2.17,4.73,4.73,0,0,0-.65,2.45,6.76,6.76,0,0,0,.45,2.65h-3.15a5.61,5.61,0,0,1-.65-2.8,6.61,6.61,0,0,1,.63-2.9,11.34,11.34,0,0,1,1.55-2.4,26.54,26.54,0,0,1,2-2.12,24.21,24.21,0,0,0,2-2.15A12.66,12.66,0,0,0,463,19.47a6.28,6.28,0,0,0,.63-2.85,5.56,5.56,0,0,0-.35-2A4.36,4.36,0,0,0,462.12,13a5.59,5.59,0,0,0-2-1.15A8.57,8.57,0,0,0,457.29,11.42ZM454.64,40a2.8,2.8,0,0,1,.72-2,3.09,3.09,0,0,1,4.15,0,3,3,0,0,1,0,3.9,3.09,3.09,0,0,1-4.15,0A2.8,2.8,0,0,1,454.64,40Z"/></g></g></svg>